<svg xmlns="http://www.w3.org/2000/svg" width="944" height="256" viewBox="0 0 249.767 67.733"><g transform="translate(2.358)"><circle cx="-33.867" cy="33.867" r="33.073" style="fill:#ffe3e3;fill-opacity:1;stroke:none;stroke-width:0;stroke-linecap:round" transform="rotate(-90)"/><path d="M46.591 18.53a19.612 19.612 0 1 0-12.235 34.76c8.667-.097 16.19-6.076 17.622-14.308l-8.17-.152" style="fill:none;stroke:#ff6b6b;stroke-width:9.94567;stroke-linecap:round;stroke-linejoin:round;stroke-opacity:1;paint-order:fill markers stroke"/><circle cx="37.013" cy="14.492" r="4.292" style="fill:#e6fcf5;fill-opacity:1;stroke:none;stroke-width:2.36786;stroke-linecap:round;stroke-linejoin:round;stroke-dasharray:none;stroke-opacity:1;paint-order:fill markers stroke;stop-color:#000"/><path d="M22.843 32.014c2.522-7.31 7.293-8.621 8.004-8.92 0 0 6.758-2.594 8.374 3.436 1.29 5.155 8.62 3.512 8.62 3.512" style="font-variation-settings:normal;opacity:1;fill:none;fill-opacity:1;stroke:#e6fcf5;stroke-width:4.84188;stroke-linecap:round;stroke-linejoin:round;stroke-miterlimit:4;stroke-dasharray:none;stroke-dashoffset:0;stroke-opacity:1;stop-color:#000;stop-opacity:1"/><path d="m16.608 46.128 11.753 1.581 4.214-23.736 4.274.785-2.4 14.764 3.937 3.117.98 12.02" style="fill:none;fill-opacity:.709252;stroke:#e6fcf5;stroke-width:4.84188;stroke-linecap:round;stroke-linejoin:round;stroke-dasharray:none;stroke-opacity:1"/><path d="m37.357 42.04-5.894-4.98" style="font-variation-settings:normal;opacity:1;vector-effect:none;fill:none;fill-opacity:.709252;stroke:#e6fcf5;stroke-width:4.84188;stroke-linecap:round;stroke-linejoin:round;stroke-miterlimit:4;stroke-dasharray:none;stroke-dashoffset:0;stroke-opacity:1;-inkscape-stroke:none;stop-color:#000;stop-opacity:1"/></g><g style="display:inline"><path d="M74.115 28.469c-4.522 25.352 19.656 20.724 20.197.034 0 0 8.381 37.327-20.802 32.849" style="fill:none;stroke:#ffe3e3;stroke-width:9.94569;stroke-linecap:round;stroke-linejoin:round;stroke-dasharray:none;stroke-opacity:1" transform="translate(7.537 -.528)"/><path d="m108.26 46.918.157-18.6-.171 4.942s12.179-14.194 11.158 13.554c.665-27.757 13.569-17.68 11.943.03M155.673 28.057c-13.465-2.448-22.288 18.864 0 18.705M174.94 28.805c-12.448-1.428-13.259 17.447-1.468 18.293 11.276.488 15.547-16.171 1.468-18.293zM194.355 46.819c-.311-4.994.332-11.644.24-14.535 3.186-2.842 7.64-3.225 13.588-1.812M218.276 62.863c-.37-9.312-.158-25.465.332-32.63 16.752-4.552 25.335 18.857 3.236 16.412" style="font-variation-settings:normal;opacity:1;vector-effect:none;fill:none;fill-opacity:1;stroke:#ffe3e3;stroke-width:7.99568;stroke-linecap:round;stroke-linejoin:round;stroke-miterlimit:4;stroke-dasharray:none;stroke-dashoffset:0;stroke-opacity:1;-inkscape-stroke:none;stop-color:#000;stop-opacity:1" transform="translate(7.537 -.528)"/></g></svg>