<svg xmlns="http://www.w3.org/2000/svg" width="256" height="256" viewBox="0 0 67.733 67.733"><circle cx="-33.867" cy="33.867" r="33.073" style="fill:#ff6b6b;fill-opacity:1;stroke:none;stroke-width:0;stroke-linecap:round" transform="rotate(-90)"/><path d="M46.591 18.53a19.612 19.612 0 1 0-12.235 34.76c8.667-.097 16.19-6.076 17.622-14.308l-8.17-.152" style="fill:none;stroke:#96f2d7;stroke-width:9.94567;stroke-linecap:round;stroke-linejoin:round;stroke-opacity:1;paint-order:fill markers stroke"/><circle cx="37.013" cy="14.492" r="4.292" style="fill:#ffe3e3;fill-opacity:1;stroke:none;stroke-width:2.36786;stroke-linecap:round;stroke-linejoin:round;stroke-dasharray:none;stroke-opacity:1;paint-order:fill markers stroke;stop-color:#000"/><path d="M22.843 32.014c2.522-7.31 7.293-8.621 8.004-8.92 0 0 6.758-2.594 8.374 3.436 1.29 5.155 8.62 3.512 8.62 3.512" style="font-variation-settings:normal;opacity:1;fill:none;fill-opacity:1;stroke:#ffe3e3;stroke-width:4.84188;stroke-linecap:round;stroke-linejoin:round;stroke-miterlimit:4;stroke-dasharray:none;stroke-dashoffset:0;stroke-opacity:1;stop-color:#000;stop-opacity:1"/><path d="m16.608 46.128 11.753 1.581 4.214-23.736 4.274.785-2.4 14.764 3.937 3.117.98 12.02" style="fill:none;fill-opacity:.709252;stroke:#ffe3e3;stroke-width:4.84188;stroke-linecap:round;stroke-linejoin:round;stroke-dasharray:none;stroke-opacity:1"/><path d="m37.357 42.04-5.894-4.98" style="font-variation-settings:normal;opacity:1;vector-effect:none;fill:none;fill-opacity:.709252;stroke:#ffe3e3;stroke-width:4.84188;stroke-linecap:round;stroke-linejoin:round;stroke-miterlimit:4;stroke-dasharray:none;stroke-dashoffset:0;stroke-opacity:1;-inkscape-stroke:none;stop-color:#000;stop-opacity:1"/></svg>